<svg width="85" height="105" viewBox="0 0 85 105" fill="none" xmlns="http://www.w3.org/2000/svg">
    <path opacity="0.2702" fill-rule="evenodd" clip-rule="evenodd" d="M70.9452 104.313C88.2806 102.533 87.0787 97.6697 79.77 96.6261C72.4614 95.5813 69.1161 96.071 44.2114 96.6261C19.3081 97.1826 12.9474 95.2422 7.94186 98.0415C2.93763 100.842 13.6754 101.692 24.1316 102.838C34.5879 103.982 53.6097 106.094 70.9452 104.313Z" fill="black"/>
    <path d="M8.61209 42.4238L9.38721 42.4841C10.7175 42.5888 11.8016 41.5571 11.8959 40.3381C11.9482 39.673 11.7702 39.1008 11.3617 38.6229C10.9532 38.145 10.4163 37.8792 9.75121 37.8281L8.97609 37.7679C7.76627 37.561 6.57086 38.5836 6.46742 39.9139C6.41505 40.579 6.59312 41.1512 7.00163 41.6291C7.41014 42.107 7.94696 42.3715 8.61209 42.4238Z" fill="#2493FF"/>
    <path d="M9.4397 82.4349C8.90157 82.1102 8.30844 82.0277 7.66033 82.1874L5.28653 82.7753C4.10028 83.0686 3.2885 84.4159 3.60928 85.7108C3.76902 86.3589 4.11861 86.8447 4.65805 87.1694C5.19749 87.4941 5.78931 87.5766 6.43611 87.4168L8.80992 86.829C10.1048 86.5082 10.8079 85.1884 10.4885 83.8935C10.3274 83.2466 9.97783 82.7596 9.4397 82.4349Z" fill="#2493FF"/>
    <path d="M22.22 88.1875L15.82 90.0651C15.1797 90.2523 14.7097 90.6229 14.4086 91.1741C14.1074 91.7266 14.0498 92.3224 14.2383 92.9626C14.6141 94.2432 15.9941 94.9973 17.2734 94.6216L23.6733 92.744C24.2062 92.5882 24.7836 92.1862 24.9473 91.559C25.2484 91.0065 25.3061 90.4108 25.1175 89.7705C24.7732 88.5974 23.4992 87.8118 22.22 88.1875Z" fill="#2493FF"/>
    <path d="M8.94871 31.6197L9.71336 31.7664C10.368 31.8921 10.9559 31.7782 11.4757 31.4247C11.9955 31.0711 12.3189 30.567 12.4446 29.9111C12.675 28.7091 11.9012 27.4299 10.5906 27.1785L9.82596 27.0319C9.1713 26.9062 8.58341 27.0201 8.06361 27.3736C7.54381 27.7271 7.2204 28.2312 7.09471 28.8872C6.84332 30.1978 7.7258 31.4993 8.94871 31.6197Z" fill="#2493FF"/>
    <path d="M19.5675 24.0272L21.9688 24.4868C22.6234 24.6125 23.2113 24.4986 23.7324 24.1451C24.2522 23.7916 24.5756 23.2875 24.7013 22.6315C24.9527 21.3209 24.1789 20.0404 22.8683 19.7903L20.467 19.3307C19.8123 19.205 19.2244 19.3189 18.7046 19.6724C18.1848 20.026 17.8614 20.53 17.7357 21.186C17.483 22.4966 18.3668 23.7981 19.5675 24.0272Z" fill="#2493FF"/>
    <path d="M9.12956 67.3938L2.51355 68.2331C1.85234 68.3169 1.32861 68.6075 0.943669 69.1051C0.558729 69.6026 0.408156 70.1826 0.491953 70.8439C0.659546 72.1676 1.90209 73.1312 3.22582 72.9636L9.84183 72.1244C10.3931 72.055 11.0268 71.7499 11.2873 71.1568C11.6723 70.6592 11.8228 70.0792 11.739 69.418C11.5845 68.2029 10.452 67.2262 9.12956 67.3938Z" fill="#2493FF"/>
    <path d="M7.4771 58.3639C6.81196 58.3102 6.2411 58.4869 5.76189 58.8941C5.28267 59.3013 5.01688 59.8382 4.96189 60.5033C4.85453 61.8336 5.87187 63.0316 7.10001 63.0198L7.87513 63.0827C8.54027 63.1364 9.11114 62.9596 9.59035 62.5524C10.0696 62.1452 10.3354 61.6084 10.3903 60.9432C10.4885 59.7243 9.58118 58.5341 8.25222 58.4267L7.4771 58.3639Z" fill="#2493FF"/>
    <path d="M1.99624 55.0683L4.41849 55.4062C5.07839 55.4978 5.65973 55.3551 6.16251 54.9754C6.66398 54.597 6.96119 54.0759 7.05415 53.416C7.23877 52.0949 6.40211 50.8549 5.08101 50.6703L2.65876 50.3325C1.99886 50.2409 1.41752 50.3836 0.914739 50.7633C0.411959 51.143 0.116052 51.6628 0.0230905 52.3227C-0.161524 53.6438 0.785117 54.8994 1.99624 55.0683Z" fill="#2493FF"/>
    <path d="M49.6975 78.5726C55.2582 70.028 60.4955 52.9937 59.5318 52.5826C57.1751 51.3872 55.981 53.7453 55.981 53.7453C55.981 53.7453 54.9243 52.8732 53.3361 51.6739C60.1551 44.055 66.6585 31.8691 62.648 28.9991C60.434 27.5562 57.5718 29.8095 57.5718 29.8095C57.5718 29.8095 47.7361 18.2194 43.9077 19.2996C40.0805 20.3785 42.5054 23.674 42.5054 23.674C42.5054 23.674 42.0681 23.5902 41.2838 23.5536L32.2233 21.82C31.5686 21.6943 30.9807 21.8083 30.4609 22.1618C29.9411 22.5153 29.6177 23.0194 29.492 23.6753C29.2407 24.986 30.1454 26.1775 31.346 26.4079L33.2014 26.7627C34.512 27.0128 35.3945 28.3143 35.1431 29.6249C35.0174 30.2809 34.6953 30.785 34.1742 31.1385C33.6544 31.492 32.9356 31.6936 32.2809 31.5693L19.8358 29.1876C19.1811 29.0619 18.5932 29.1758 18.0721 29.5293C17.5523 29.8828 17.2289 30.3869 17.1032 31.0429C16.8518 32.3535 17.7356 33.655 18.9363 33.8841L24.2849 34.908C25.5955 35.1581 26.368 36.4386 26.1179 37.7493C25.9922 38.4052 25.6701 38.9093 25.149 39.2628C24.6292 39.6164 24.0413 39.7303 23.3867 39.6046L18.6927 38.7064C18.0381 38.5807 17.4502 38.6946 16.9291 39.0481C16.4093 39.4016 16.0859 39.9057 15.9602 40.5617C15.7088 41.8723 16.5926 43.1738 17.7932 43.4029L23.5791 44.5093C24.8898 44.7594 25.6623 46.0399 25.4331 47.2419C25.3074 47.8965 24.9854 48.4019 24.4642 48.7554C24.2168 48.9243 23.9523 49.0356 23.6734 49.0959C23.5372 49.1011 23.405 49.1155 23.278 49.143C23.0921 49.1495 22.8996 49.1364 22.7006 49.0972L18.9886 48.3875L13.2879 47.086C12.6332 46.9604 12.0453 47.0743 11.5255 47.4278C11.0057 47.7813 10.6823 48.2854 10.5566 48.9414C10.3052 50.252 11.189 51.5535 12.3897 51.7826L17.9818 53.0631L23.1012 54.0425L28.1002 54.8687C29.4161 55.086 30.2397 56.2408 30.059 57.3328C29.9608 57.9286 29.6596 58.3881 29.1555 58.7128C28.7444 59.1541 28.0544 59.2444 27.5058 59.1541C27.5058 59.1541 20.5062 57.9678 20.315 57.884L16.9893 57.393C16.3242 57.3393 15.752 57.5161 15.2741 57.9233C14.7949 58.3305 14.5291 58.8673 14.4741 59.5325C14.3667 60.8627 15.3841 62.0608 16.6031 62.159L22.0315 62.5989C23.3605 62.7063 24.2678 63.8964 24.1605 65.2254C24.1068 65.8905 23.8397 66.4274 23.3605 66.8346C22.8813 67.2418 22.3091 67.4185 21.6453 67.3648L17.6427 66.9786C16.9775 66.9249 16.4054 67.1017 15.9275 67.5089C15.4482 67.9161 15.1824 68.4529 15.1275 69.118C15.0201 70.4483 16.0374 71.6463 17.2564 71.7458L22.368 72.2211C23.697 72.3285 24.6043 73.5173 24.5061 74.7376C24.4525 75.4028 24.1854 76.3952 23.7061 76.8024C23.2269 77.2096 21.4489 78.0987 20.785 78.045L20.6476 78.1929L15.6538 79.4289C14.4676 79.7222 13.6558 81.0695 13.9753 82.3644C14.135 83.0126 14.4846 83.4983 15.024 83.823C15.5635 84.1477 16.1553 84.2302 16.8034 84.0705L29.1032 81.0263C29.75 80.8666 30.478 81.0302 31.0161 81.355C31.5542 81.6797 31.9038 82.1667 32.0649 82.8135C32.3856 84.1085 31.5739 85.4558 30.2789 85.7765L28.4446 86.2309C27.2583 86.5242 26.4191 87.7628 26.7398 89.059C26.8996 89.7071 27.2492 90.1929 27.7886 90.5176C28.3267 90.8423 28.9199 90.9248 29.5667 90.7651L38.5224 88.5484C39.3041 88.4698 39.7362 88.3625 39.7362 88.3625C39.7362 88.3625 42.4648 82.4666 46.3456 83.3399C50.2252 84.2119 55.8736 81.3903 55.8736 81.3903C55.8736 81.3903 57.433 83.5245 59.5659 81.9664C61.8048 80.1726 56.7888 79.1435 49.6975 78.5726Z" fill="#2493FF"/>
    <path d="M42.0837 12.8463C42.6428 14.0574 44.0712 14.4999 45.2837 13.9395C45.8899 13.6593 46.301 13.2247 46.5184 12.6355C46.7357 12.045 46.7043 11.4479 46.4254 10.8417L45.4002 8.62107C44.8883 7.51077 43.4127 6.9674 42.2002 7.52779C41.594 7.80798 41.1829 8.24268 40.9655 8.83187C40.7482 9.42238 40.7796 10.0194 41.0585 10.6256L42.0837 12.8463Z" fill="#2493FF"/>
    <path d="M22.9937 9.67498L24.8568 11.2579C25.3648 11.69 25.9331 11.8799 26.559 11.8288C27.1861 11.7777 27.7151 11.4976 28.1472 10.9895C29.0113 9.97219 28.9694 8.47694 27.9534 7.6141L26.0902 6.03113C25.5822 5.59905 25.0139 5.4092 24.3881 5.46026C23.7609 5.51133 23.232 5.79152 22.7999 6.29954C21.9344 7.31558 22.0614 8.88283 22.9937 9.67498Z" fill="#2493FF"/>
    <path d="M33.115 3.50692L34.2646 5.66468C34.5775 6.25388 35.0358 6.63882 35.6367 6.82212C36.2377 7.00543 36.8335 6.93996 37.4227 6.62703C38.6011 5.99987 39.1117 4.59365 38.4845 3.41657L37.3349 1.25881C37.022 0.669613 36.5638 0.284671 35.9628 0.101366C35.3605 -0.0819396 34.766 -0.0164728 34.1769 0.296455C32.9998 0.924931 32.5402 2.42803 33.115 3.50692Z" fill="#2493FF"/>
    <path d="M68.1444 65.4214C68.1444 65.4214 65.3582 88.8439 66.1987 92.4563C67.0393 96.0687 68.676 96.7613 68.676 96.7613L67.9755 98.0209C67.9755 98.0209 57.4171 100.346 56.5765 98.9178C55.7359 97.4893 56.3382 91.9011 56.3382 91.9011C56.3382 91.9011 48.3972 92.9813 44.21 91.8501L44.68 98.8497C44.5098 99.6052 43.8591 100.155 43.0866 100.2C40.1314 100.369 33.886 100.825 32.4326 100.626C32.4326 100.626 34.8968 93.8206 35.486 91.9718C36.0752 90.1231 33.6372 77.856 35.7099 65.4214L50.6951 57.8574L68.1444 65.4214Z" fill="#85C5FF"/>
    <path d="M51.0289 62.0352C51.0289 62.0352 47.6679 68.4443 43.6352 68.7808C39.6025 69.1173 37.6699 67.9402 37.6699 67.9402C37.6699 67.9402 35.9049 81.3005 37.6699 84.0724C40.2611 88.1431 46.2263 91.4216 46.2263 91.4216L43.9259 92.2831C43.9259 92.2831 40.5085 89.455 39.266 89.7863C36.7455 90.4579 35.3144 100.612 35.3144 100.612L32.4326 99.7293C32.4326 99.7293 35.0657 93.9041 35.3171 91.9715C35.5698 90.039 33.7563 73.2246 35.503 66.7592L35.7085 65.4211C35.7085 65.4211 38.4634 67.427 42.2682 66.7592C46.0718 66.0928 51.0289 62.0352 51.0289 62.0352Z" fill="#2496FF"/>
    <path d="M49.2744 64.7379C49.2744 64.7379 50.3559 62.8983 51.3667 63.7402C52.879 65.0011 56.5765 66.7648 59.9375 67.3526C62.1149 67.7337 65.7418 66.2306 65.7418 66.2306C65.7418 66.2306 55.7922 64.7379 53.8322 63.608C51.8721 62.478 51.0315 62.0342 51.0315 62.0342C51.0315 62.0342 49.535 63.6355 49.2744 64.7379Z" fill="#2496FF"/>
    <path d="M33.3611 96.7991C34.254 94.9072 35.1981 92.8319 35.4835 91.9324C36.0504 90.1517 33.8102 78.7069 35.4953 66.7567C35.6157 65.9017 36.146 65.1593 36.9172 64.7705L49.5915 58.3731C50.2893 58.0209 51.1076 57.9973 51.8238 58.3077L66.4424 64.6448C67.4598 65.086 68.0922 66.1178 68.0228 67.2241C67.6876 72.5531 65.5076 89.4866 66.1976 92.4561C66.9151 95.5409 68.5635 96.007 68.6513 96.5739C68.667 96.676 68.6879 96.7756 68.7154 96.8751L68.9315 97.6567" stroke="black" stroke-width="1.61328" stroke-miterlimit="10" stroke-linecap="round"/>
    <path d="M51.0291 62.0349C51.0291 62.0349 59.9364 67.8562 66.322 66.0912C72.7075 64.3262 73.8846 58.6137 72.3724 54.9999C70.8601 51.3862 63.7911 46.433 63.6706 42.9437C63.6706 42.9437 69.7681 40.8828 71.7845 38.3624C73.8008 35.8419 71.3891 32.3526 71.3891 32.3526C71.3891 32.3526 66.6755 32.3172 66.6585 31.6403C66.5851 28.7244 63.3498 23.2148 62.0562 20.8751C61.8127 20.4338 61.9659 19.8787 62.4019 19.626C64.2022 18.5798 68.265 15.681 65.3989 12.1471C62.5249 8.60539 59.7583 12.1864 58.7449 13.7995C58.6258 13.9906 58.161 14.8561 58.1505 14.6322C58.1047 13.5743 54.9269 8.47446 53.7669 8.46267C52.976 8.45482 52.341 13.7576 52.3057 13.6581C50.8942 9.68951 44.8373 6.67676 44.8373 6.67676C44.6749 7.48854 45.0782 11.901 44.8373 12.6839C44.8373 12.6839 43.8435 11.4924 39.6419 10.7357C35.4403 9.97887 36.1133 8.48101 36.8818 10.7357C38.2396 14.7239 40.2246 16.3317 40.2246 16.3317C40.2246 16.3317 35.0292 12.7599 33.1804 16.2309C31.5437 19.3013 34.3575 24.5883 35.9051 25.2561C35.9051 25.2561 36.9342 28.5163 35.9051 30.0456C32.7968 34.6675 32.7405 37.0871 34.5329 39.6167C35.672 41.2232 36.7994 41.7103 37.471 41.8504C37.8102 41.9211 38.0327 42.2484 37.9712 42.5902C37.5692 44.8317 36.1814 51.8694 34.2567 53.9093C31.9562 56.3446 51.0291 62.0349 51.0291 62.0349Z" fill="#85C5FF"/>
    <path d="M68.4234 25.6762C68.4234 29.0634 66.411 31.8104 63.9285 31.8104C61.446 31.8104 59.4336 29.0647 59.4336 25.6762C59.4336 22.2877 61.5966 19.5342 63.9285 19.542C66.411 19.5499 68.4234 22.289 68.4234 25.6762Z" fill="#D7EEFF" stroke="black" stroke-width="1.35047" stroke-miterlimit="10" stroke-linecap="round"/>
    <path d="M51.9548 34.2464C55.2493 34.2464 57.9201 31.2932 57.9201 27.6501C57.9201 24.007 55.2493 21.0537 51.9548 21.0537C48.6602 21.0537 45.9895 24.007 45.9895 27.6501C45.9895 31.2932 48.6602 34.2464 51.9548 34.2464Z" fill="#D7EEFF" stroke="#03213D" stroke-width="1.61328" stroke-miterlimit="10" stroke-linecap="round"/>
    <path d="M47.1915 31.6234C47.1915 31.6234 40.3581 31.6418 40.4419 35.0028C40.5257 38.3638 42.3745 41.2208 45.9869 42.3127C49.5993 43.4047 55.3342 43.4741 55.3342 43.4741C55.3342 43.4741 61.1292 44.879 65.8258 42.1255C70.5223 39.372 72.6775 37.4159 72.6775 37.4159L70.9426 32.9026C70.9426 32.9026 67.4978 32.1458 66.6572 31.8945C65.8166 31.6418 62.3299 29.2051 61.9724 28.7861C61.615 28.3658 60.0189 25.611 58.9269 25.9802C57.835 26.3495 58.4333 29.9789 56.2022 32.282C53.9712 34.5825 50.4962 35.3864 47.1915 31.6234Z" fill="#07559E"/>
    <path d="M33.8887 33.7432C33.8887 33.7432 35.9888 39.0368 38.6782 40.2125C41.3675 41.3883 47.1364 42.6125 47.1364 42.6125C47.1364 42.6125 41.031 43.1533 39.6876 44.0777C38.343 45.002 38.1296 51.0197 38.1296 51.0197L35.1639 52.5346L38.0078 42.5641L36.8111 41.3922C36.8084 41.3922 31.7047 39.2043 33.8887 33.7432Z" fill="#2496FF"/>
    <path d="M35.905 25.2568C35.905 25.2568 37.3334 28.5341 35.3171 31.1383C33.1685 33.9141 32.9642 38.6159 35.3171 40.4646C37.6699 42.3134 40.4431 42.3134 40.4431 42.3134" stroke="black" stroke-width="1.61328" stroke-miterlimit="10" stroke-linecap="round"/>
    <path d="M38.0905 23.8274C38.0905 23.8274 35.7376 22.9868 35.2335 20.2988C34.7229 17.5728 35.244 16.7126 36.6673 16.7833C38.0905 16.854 41.115 19.3744 40.4433 20.8867C39.7704 22.399 39.519 23.9112 38.0905 23.8274Z" fill="#2493FF"/>
    <path d="M38.0904 25.5088C32.7968 25.7615 30.8642 16.8542 34.3928 15.0055C37.9214 13.1567 40.8569 17.1056 40.8569 17.1056" stroke="black" stroke-width="1.61328" stroke-miterlimit="10" stroke-linecap="round"/>
    <path d="M40.443 19.5422C40.443 19.5422 37.8388 16.2649 35.7373 16.8528" stroke="black" stroke-width="1.61328" stroke-miterlimit="10" stroke-linecap="round"/>
    <path d="M59.5159 26.3486C59.5159 26.3486 62.877 30.8016 66.6583 31.8936C70.4396 32.9856 72.1195 32.1463 72.8763 31.8936C73.6331 31.6409 75.6494 30.9692 74.6412 34.4141C73.6331 37.8589 66.9948 42.9011 60.1051 43.7404C53.4093 44.5574 48.2571 39.959 48.2571 39.959" stroke="black" stroke-width="1.61328" stroke-miterlimit="10" stroke-linecap="round"/>
    <path d="M70.0455 32.4396C70.0455 32.4396 68.8279 37.2239 71.7765 38.3394C71.7765 38.3394 74.8691 35.6749 74.8809 32.4396C74.8809 32.4396 75.1453 31.053 72.8763 31.8936C70.6072 32.7342 70.0455 32.4396 70.0455 32.4396Z" fill="black"/>
    <path d="M63.1298 29.7938C64.1508 29.7938 64.9785 28.7591 64.9785 27.4828C64.9785 26.2065 64.1508 25.1719 63.1298 25.1719C62.1087 25.1719 61.281 26.2065 61.281 27.4828C61.281 28.7591 62.1087 29.7938 63.1298 29.7938Z" fill="black"/>
    <path d="M64.1694 27.7142C64.4456 27.7142 64.6695 27.3174 64.6695 26.8278C64.6695 26.3383 64.4456 25.9414 64.1694 25.9414C63.8931 25.9414 63.6692 26.3383 63.6692 26.8278C63.6692 27.3174 63.8931 27.7142 64.1694 27.7142Z" fill="white"/>
    <path d="M50.0366 18.2435C50.0366 18.2435 46.0562 18.0654 43.1731 21.8769" stroke="black" stroke-width="1.61328" stroke-miterlimit="10" stroke-linecap="round"/>
    <path d="M57.9202 26.8281C57.9202 26.8281 58.4662 26.2219 59.3067 26.307" stroke="black" stroke-width="1.72929" stroke-miterlimit="10" stroke-linecap="round"/>
    <path d="M52.6265 31.3055C53.7401 31.3055 54.6428 30.1771 54.6428 28.7851C54.6428 27.3931 53.7401 26.2646 52.6265 26.2646C51.5129 26.2646 50.6101 27.3931 50.6101 28.7851C50.6101 30.1771 51.5129 31.3055 52.6265 31.3055Z" fill="black"/>
    <path d="M53.7603 29.038C54.0619 29.038 54.3063 28.6054 54.3063 28.0717C54.3063 27.5381 54.0619 27.1055 53.7603 27.1055C53.4588 27.1055 53.2144 27.5381 53.2144 28.0717C53.2144 28.6054 53.4588 29.038 53.7603 29.038Z" fill="white"/>
    <path d="M51.9548 34.0795C55.2493 34.0795 57.9201 31.1262 57.9201 27.4831C57.9201 23.84 55.2493 20.8867 51.9548 20.8867C48.6602 20.8867 45.9895 23.84 45.9895 27.4831C45.9895 31.1262 48.6602 34.0795 51.9548 34.0795Z" stroke="black" stroke-width="1.61328" stroke-miterlimit="10" stroke-linecap="round"/>
    <path d="M66.6453 31.665C68.0528 32.4912 69.6764 32.3289 71.3 32.3289C72.9235 34.1148 73.0859 37.1995 71.3 38.9855C70.9753 39.3102 70.6505 39.4725 70.4882 39.7972C68.3776 41.2585 66.1046 42.0702 63.8316 43.0444C63.3445 43.2067 63.8316 44.0185 63.9939 44.5056C64.481 45.8044 65.4551 46.7786 66.2669 47.7527C69.027 50.6751 72.4365 53.2728 72.9235 57.3317C73.4106 60.5788 71.4623 63.6636 68.7023 65.2871C64.8057 67.3978 60.4221 66.586 56.5269 64.9624C54.4162 64.1507 52.6303 62.6894 50.5197 61.8777C45.3243 60.0918 40.1302 58.9553 35.2595 56.0328C34.9348 55.7081 34.7725 55.3834 34.4478 55.2211C34.2854 54.8964 34.123 54.5716 34.123 54.2469C34.4478 52.9481 35.4219 52.1363 35.909 50.9998C36.8831 48.4021 37.5325 44.9926 38.0196 42.2326" stroke="black" stroke-width="1.61328" stroke-miterlimit="10" stroke-linecap="round"/>
    <path d="M61.6177 20.0459C63.3617 19.2157 65.289 17.8737 66.0785 16.0524C66.7345 14.5375 66.1898 13.0122 65.1083 11.8495C63.655 10.2888 61.8481 10.4249 60.3463 11.8168C59.2347 12.8485 58.5447 14.1762 57.7512 15.4449" stroke="black" stroke-width="1.61328" stroke-miterlimit="10" stroke-linecap="round"/>
    <path d="M35.4795 53.3964C35.4795 53.3964 31.8723 53.1529 31.7047 58.5303C31.5371 63.9076 37.8389 68.8647 44.7285 65.8402C51.6182 62.8157 57.92 55.7571 59.9376 54.7489C61.954 53.7408 65.3988 53.9083 65.3988 53.9083C65.3988 53.9083 63.3824 49.8756 60.6093 49.2026C57.8362 48.531 50.1059 49.4553 47.3328 52.4799C44.5596 55.5044 43.6994 55.236 43.6994 55.236L41.3243 55.8606L38.178 56.9303C38.1767 56.9303 35.1377 57.0861 35.4795 53.3964Z" fill="#85C5FF"/>
    <path d="M53.8874 62.9824C53.8874 62.9824 56.8281 58.5294 60.4419 56.1765C62.2068 55.0269 65.4579 53.9074 65.4579 53.9074C65.4579 53.9074 61.1135 53.5709 59.9378 54.5791C58.762 55.5873 51.3669 61.6377 51.3669 61.6377L53.8874 62.9824Z" fill="#2496FF"/>
    <path d="M35.685 55.3366C35.685 55.3366 34.644 58.1098 36.9969 58.2774C39.3498 58.445 41.4499 57.7733 42.627 56.7651C43.8041 55.7569 44.9458 54.623 44.9458 54.623L42.318 55.3366C42.318 55.3366 41.2103 56.5988 38.8941 56.7245C36.5779 56.8502 35.685 55.3366 35.685 55.3366Z" fill="#2496FF"/>
    <path d="M33.3847 54.1602C33.3847 54.1602 31.5359 61.9742 39.0986 66.7637C39.0986 66.7637 27.0829 63.3189 33.3847 54.1602Z" fill="#2496FF"/>
    <path d="M47.3327 52.4803C47.3327 52.4803 44.9799 55.2534 43.1311 55.3372C41.2823 55.421 40.1066 57.0171 37.7537 56.9333C35.4008 56.8495 34.2251 53.656 36.6617 51.8924C39.0984 50.1287 44.8961 48.111 47.3327 52.4803Z" fill="#85C5FF" stroke="black" stroke-width="1.61328" stroke-miterlimit="10" stroke-linecap="round"/>
    <path d="M35.4821 53.37C35.4821 53.37 31.875 53.1265 31.7074 58.5039C31.5398 63.8813 37.8416 68.8384 44.7312 65.8138C51.6209 62.7893 57.9226 55.7308 59.9403 54.7226C61.9567 53.7144 65.4015 53.882 65.4015 53.882C65.4015 53.882 63.3851 49.8493 60.612 49.1763C57.8388 48.5046 50.1086 49.429 47.3355 52.4535C44.5623 55.4781 43.7021 55.2096 43.7021 55.2096L41.327 55.8342L38.1807 56.9039C38.1794 56.9039 35.1404 57.0597 35.4821 53.37Z" stroke="black" stroke-width="1.61328" stroke-miterlimit="10" stroke-linecap="round"/>
    <path d="M59.1391 16.5324C58.6861 17.0561 58.8969 17.7514 59.4141 18.2096C59.6851 18.4492 60.0858 18.626 60.3568 18.8695C62.7934 21.0548 66.9964 13.6637 62.3745 13.6191C62.3745 13.6204 60.527 14.9285 59.1391 16.5324Z" fill="#2493FF"/>
    <path d="M58.7607 16.9382C58.7607 16.9382 60.6933 13.5771 62.7935 13.5771" stroke="black" stroke-width="1.61328" stroke-miterlimit="10" stroke-linecap="round"/>
    <path d="M71.2048 52.6639C74.0748 52.6639 76.4015 50.3373 76.4015 47.4672C76.4015 44.5972 74.0748 42.2705 71.2048 42.2705C68.3347 42.2705 66.0081 44.5972 66.0081 47.4672C66.0081 50.3373 68.3347 52.6639 71.2048 52.6639Z" fill="white" stroke="black" stroke-width="1.62218" stroke-miterlimit="10" stroke-linecap="round"/>
    <path d="M66.1154 54.4379L68.5481 51.907L66.8709 50.2939L62.8159 54.3371C63.9171 54.3672 65.0156 54.4301 66.1154 54.4379Z" fill="black"/>
    <path d="M69.0771 45.3145C70.2647 44.0798 72.2287 44.0405 73.4634 45.2281" stroke="#020202" stroke-width="1.06372" stroke-miterlimit="10" stroke-linecap="round"/>
    <path d="M68.2937 20.3073C68.3972 20.2994 68.4993 20.2601 68.5831 20.1868C68.7887 20.0074 68.8096 19.6958 68.6302 19.4902C65.8545 16.3112 62.39 16.6713 62.2434 16.6883C61.9723 16.7197 61.7786 16.9646 61.81 17.2356C61.8414 17.5053 62.0863 17.6991 62.356 17.669C62.4869 17.6546 65.4656 17.3678 67.8879 20.1397C67.9926 20.2601 68.1445 20.3177 68.2937 20.3073Z" fill="black"/>
    <path d="M58.0693 14.5519C58.0693 14.5519 56.4457 10.3306 53.6857 8.86942L52.2245 13.7401C52.2245 13.7401 48.4903 8.21999 44.4314 6.75879L45.5679 14.3895" stroke="black" stroke-width="1.61329" stroke-miterlimit="10" stroke-linecap="round"/>
    <path d="M39.7414 15.9332L36.4773 10.0059C39.7244 10.6553 44.9198 12.6036 44.9198 12.6036" stroke="black" stroke-width="1.61328" stroke-miterlimit="10" stroke-linecap="round"/>
    <path d="M31.5476 98.9403C31.562 97.2329 32.4026 95.6984 33.6609 94.956C35.0383 94.1416 37.0062 93.2041 38.7358 93.229C41.776 93.2722 44.3593 96.2627 43.8513 98.6182C43.1011 102.092 31.5803 100.307 31.5502 99.1223C31.5476 99.0633 31.5476 99.0018 31.5476 98.9403Z" fill="#07559E"/>
    <path d="M55.9744 95.7823C55.9744 95.7823 67.355 92.2681 69.0506 94.8867C70.7461 97.5054 71.9677 99.1931 65.1278 99.5348C58.2879 99.8766 55.6025 100.79 55.9744 95.7823Z" fill="#07559E"/>
    <path d="M70.6468 95.7148C69.7879 93.8647 67.2556 92.3708 63.7231 93.4614C63.3984 93.5622 63.2164 93.9053 63.3172 94.23C63.418 94.5547 63.7611 94.7367 64.0858 94.6359C66.9126 93.7626 68.8897 94.8506 69.5312 96.232C69.8625 96.9468 69.8874 97.9223 68.9604 98.5167C67.8972 99.1976 65.3676 99.5733 62.3588 99.4935C59.0894 99.4071 57.2878 98.8571 57.0586 98.594C56.7837 98.1383 56.6252 95.6899 57.1293 91.6663C58.0301 91.2434 58.9558 90.7236 59.9012 90.0781C60.163 89.9001 60.2311 89.5426 60.0531 89.2794C59.8737 89.0176 59.5175 88.9495 59.2544 89.1276C55.3997 91.7541 51.4547 92.6379 47.5254 91.7554C44.5886 91.0955 42.753 89.6395 42.7255 89.6172C42.4793 89.4182 42.1179 89.4562 41.9176 89.7024C41.7173 89.9485 41.7553 90.3112 42.0014 90.5102C42.042 90.5443 42.5644 90.9619 43.4849 91.4595C43.4744 91.4961 43.4665 91.5354 43.4626 91.576C43.4535 91.6821 43.2322 94.1698 43.2322 95.0614C43.2322 95.3992 43.3461 95.7881 43.477 96.2385C43.7546 97.1878 44.1003 98.3701 43.4692 99.3206C43.3186 99.5472 42.1546 100.088 39.5176 100.314C37.2158 100.512 34.8748 100.362 33.4083 99.9203C32.8218 99.7449 31.8385 99.3586 31.8371 98.7485C31.828 95.1518 35.2663 94.5482 35.4181 94.5233C35.7533 94.4709 35.9825 94.1567 35.9301 93.8215C35.8777 93.4863 35.5635 93.2559 35.2283 93.3082C33.6257 93.5583 30.5985 95.0169 30.6077 98.7511C30.609 99.4869 31.0358 100.492 33.0548 101.099C34.228 101.451 35.8672 101.621 37.5445 101.621C40.607 101.621 43.7952 101.055 44.4944 100.001C45.4423 98.5743 44.971 96.9612 44.658 95.8941C44.5611 95.5642 44.4616 95.2238 44.4616 95.0614C44.4616 94.4107 44.5965 92.7492 44.658 92.0277C45.3834 92.3393 46.2423 92.6405 47.2178 92.8631C48.2338 93.0948 49.4449 93.2545 50.8105 93.2179C52.3163 93.1773 54.0092 92.8958 55.8292 92.2136C55.765 92.8225 55.6786 93.7311 55.6236 94.704C55.4429 97.8935 55.7545 98.8126 56.0059 99.2277C56.1709 99.5013 56.5585 99.9046 58.0066 100.242C59.3185 100.547 61.1869 100.729 63.0789 100.729C65.6766 100.729 68.3188 100.386 69.6242 99.5511C70.9165 98.7249 71.3289 97.1825 70.6468 95.7148Z" fill="black"/>
    <path d="M71.6091 32.941C71.6091 32.941 72.4353 31.9224 72.8766 31.8949C73.3178 31.8674 74.0327 31.8674 73.8952 32.4186C73.7577 32.9698 71.6091 32.941 71.6091 32.941Z" fill="#D7EEFF"/>
</svg>
