<svg width="531" height="364" viewBox="0 0 531 364" fill="none" xmlns="http://www.w3.org/2000/svg">
<path fill-rule="evenodd" clip-rule="evenodd" d="M-112.1 1.21021L-402.198 0.585938L-403.525 617.202L-357 617.302C-356.974 617.302 -356.948 617.302 -356.922 617.303L125.685 618.341C139.323 618.37 150.402 607.339 150.431 593.701C150.461 580.107 139.499 569.055 125.922 568.956L194.153 569.103L194.264 569.103L112.95 568.928C99.3127 568.898 88.281 557.819 88.3104 544.182C88.3396 530.581 99.3588 519.573 112.945 519.542L-113.214 519.055L112.978 519.542L113.056 519.542L301.262 519.947C314.864 519.934 325.901 508.919 325.93 495.307C325.959 481.67 314.928 470.591 301.29 470.561L298.813 470.556L205.188 470.354C191.55 470.325 180.519 459.246 180.548 445.608C180.578 431.971 191.657 420.939 205.294 420.969L298.92 421.17L343.465 421.266C357.102 421.295 368.181 410.264 368.211 396.626C368.24 382.989 357.208 371.91 343.571 371.88L299.026 371.784L287.785 371.76C274.147 371.731 263.116 360.651 263.145 347.014C263.174 333.376 274.253 322.345 287.891 322.374L322.692 322.449C336.307 322.453 347.36 311.431 347.39 297.809C347.415 285.951 339.077 276.027 327.935 273.62L244.213 273.44C230.555 273.411 219.506 262.315 219.536 248.656C219.565 234.998 230.661 223.95 244.319 223.979L309.422 224.119C322.175 223.156 332.235 212.517 332.263 199.513C332.292 185.855 321.244 174.759 307.586 174.729L299.45 174.712L186.237 174.468C184.678 174.773 183.066 174.932 181.416 174.928L77.4267 174.704C63.7892 174.675 52.7576 163.596 52.787 149.958C52.8163 136.321 63.8954 125.289 77.533 125.318L106.706 125.381C120.289 125.347 131.304 114.34 131.333 100.742C131.363 87.104 120.331 76.0248 106.694 75.9955L-112.26 75.5243L-112.1 1.21021ZM197.63 569.11C186.483 571.308 178.066 581.124 178.04 592.919L178.039 593.663C178.01 607.095 188.875 618.008 202.308 618.037C215.74 618.066 226.653 607.2 226.681 593.768L226.683 593.024C226.708 581.229 218.333 571.376 207.196 569.131L197.63 569.11ZM401.955 396.228C401.984 382.591 413.063 371.559 426.701 371.589L506.15 371.76C519.788 371.789 530.819 382.868 530.79 396.506C530.76 410.143 519.681 421.175 506.044 421.145L426.594 420.974C412.957 420.945 401.925 409.866 401.955 396.228ZM362.069 470.692C348.431 470.663 337.352 481.694 337.323 495.332C337.293 508.969 348.325 520.049 361.962 520.078L384.444 520.126C398.081 520.156 409.161 509.124 409.19 495.487C409.219 481.849 398.188 470.77 384.55 470.741L362.069 470.692ZM393.166 274.626C379.528 274.597 368.449 285.628 368.42 299.266C368.39 312.903 379.422 323.982 393.06 324.012L425.62 324.082C439.257 324.111 450.337 313.08 450.366 299.442C450.395 285.805 439.364 274.725 425.726 274.696L393.166 274.626Z" fill="#DEE3EA"/>
</svg>
