<svg width="72" height="35" viewBox="0 0 72 35" fill="none" xmlns="http://www.w3.org/2000/svg">
    <path fill-rule="evenodd" clip-rule="evenodd" d="M59.2283 13.2786C61.0759 20.1166 68.1587 20.8104 70.417 20.8104C70.8276 20.8104 71.1355 21.1077 71.2381 21.3059C70.417 31.4144 53.3773 33.6937 42.3939 34.0902C40.649 34.1892 39.1092 34.1892 37.7747 34.1892H34.9006H33.5662H17.9637H9.9571C8.82796 34.1892 7.80149 33.1982 7.80149 32.009C7.80149 31.4144 8.00677 30.9188 8.41737 30.5224C8.82796 30.126 9.34121 29.9279 9.9571 29.9279H18.0664H21.5564C22.1722 29.9279 22.6855 29.7296 23.096 29.3332C23.5067 28.9368 23.7119 28.4412 23.7119 27.8467C23.7119 26.7565 22.7881 25.7656 21.5564 25.7656H16.116C14.9869 25.7656 13.9604 24.7745 13.9604 23.5852C13.9604 22.9907 14.1657 22.4952 14.5762 22.0987C14.9869 21.7024 15.5 21.5041 16.116 21.5041H20.5299C21.1457 21.5041 21.659 21.3059 22.0695 20.9096C22.4802 20.5131 22.6855 20.0176 22.6855 19.4229C22.6855 18.2338 21.7616 17.2427 20.5299 17.2427H15.5C14.371 17.2427 13.3445 16.2517 13.3445 15.0625C13.3445 14.4678 13.5497 13.9724 13.9604 13.5759C14.371 13.1795 14.8842 12.9813 15.5 12.9813H27.202C27.8179 12.9813 28.4338 12.6841 28.8444 12.2876C29.2549 11.8911 29.4603 11.3957 29.4603 10.8011C29.4603 9.61185 28.4338 8.62082 27.202 8.62082H25.457C24.3279 8.62082 23.3014 7.7289 23.3014 6.53967C23.3014 5.94506 23.5067 5.44954 23.9173 5.05314C24.3279 4.65673 24.8411 4.45852 25.457 4.45852H33.9768C34.6954 4.35943 35.106 4.35943 35.106 4.35943C35.106 4.35943 32.3344 1.88187 35.6192 0.296229C38.9039 -1.28941 51.1191 6.93608 51.1191 6.93608C51.1191 6.93608 52.0429 4.75583 54.3012 5.64775C55.5329 6.04416 56.97 8.52172 57.9965 10.5038C58.7151 11.9903 59.2283 13.2786 59.2283 13.2786ZM53.5826 20.3149C53.5826 21.405 54.5064 22.297 55.6356 22.297C56.7647 22.297 57.6886 21.405 57.6886 20.3149C57.6886 19.2248 56.7647 18.3329 55.6356 18.3329C54.5064 18.3329 53.5826 19.2248 53.5826 20.3149ZM14.2679 6.53971C14.2679 5.9451 14.4732 5.44959 14.8838 5.05318C15.2944 4.65676 15.8076 4.45856 16.4235 4.45856H18.6818C19.9136 4.45856 20.8374 5.44959 20.8374 6.63881C20.8374 7.23343 20.6321 7.72894 20.2216 8.12534C19.8109 8.52176 19.2976 8.71996 18.6818 8.71996H16.4235C15.2944 8.71996 14.2679 7.72894 14.2679 6.53971ZM8.41716 25.6664H2.25826C1.02648 25.6664 0 24.6753 0 23.4861C0 22.8915 0.205296 22.396 0.61589 21.9996C1.02648 21.6032 1.53972 21.405 2.15561 21.405H8.31451C9.54628 21.405 10.4701 22.396 10.4701 23.4861C10.4701 24.0808 10.2648 24.5762 9.85423 24.9727C9.54628 25.4682 8.9304 25.6664 8.41716 25.6664ZM6.56946 13.5759C6.15887 13.9723 5.95357 14.4678 5.95357 15.0625C5.95357 16.2516 6.98006 17.2427 8.10919 17.1436H8.82772C9.44362 17.1436 9.95686 16.9453 10.3674 16.549C10.778 16.1525 10.9833 15.6571 10.9833 15.0625C10.9833 13.9723 10.0595 12.9813 8.82772 12.9813H8.10919C7.4933 12.9813 6.98006 13.1795 6.56946 13.5759Z" fill="#13233B"/>
</svg>
