<svg width="842" height="749" viewBox="0 0 842 749" fill="none" xmlns="http://www.w3.org/2000/svg">
<path fill-rule="evenodd" clip-rule="evenodd" d="M843.781 -104.643L1223.17 -103.827L1221.31 760.185L1158.12 760.049C1158.1 760.049 1158.07 760.049 1158.05 760.049L841.922 759.369L531.522 758.701C512.413 758.66 496.955 743.136 496.996 724.027C497.037 704.971 512.474 689.547 531.51 689.501L442.269 689.309C442.22 689.309 442.171 689.309 442.122 689.308L543.85 689.527C562.959 689.568 578.483 674.111 578.524 655.002C578.565 635.942 563.187 620.448 544.145 620.328L842.22 620.969L544.112 620.328L543.999 620.327L302.47 619.807C283.413 619.705 268.017 604.205 268.058 585.133C268.099 566.024 283.624 550.567 302.733 550.608L303.664 550.61L423.799 550.868C442.908 550.909 458.432 535.452 458.473 516.343C458.514 497.234 443.057 481.709 423.948 481.668L247.691 481.289C228.662 481.154 213.298 465.666 213.339 446.615C213.38 427.506 228.905 412.048 248.014 412.089L303.962 412.21L316.356 412.236C335.465 412.278 350.989 396.82 351.03 377.711C351.071 358.601 335.614 343.077 316.505 343.036L275.591 342.948C256.519 342.863 241.105 327.356 241.146 308.274C241.181 291.657 252.924 277.802 268.551 274.497L373.908 274.724C393.046 274.765 408.594 259.284 408.636 240.146C408.677 221.007 393.196 205.46 374.057 205.418L293.343 205.245C275.486 203.812 261.46 188.847 261.499 170.629C261.54 151.491 277.088 136.009 296.227 136.051L304.556 136.068L454.47 136.391C456.654 136.828 458.912 137.06 461.223 137.065L592.604 137.347C611.713 137.388 627.238 121.931 627.279 102.822C627.32 83.7126 611.862 68.1883 592.753 68.1472L559.203 68.075C540.171 67.944 524.804 52.4546 524.845 33.4013C524.886 14.2922 540.41 -1.16541 559.519 -1.12429L843.557 -0.513053L843.781 -104.643ZM435.63 689.294C450.087 692.315 460.932 705.148 460.899 720.497L460.887 726.084C460.849 743.651 446.578 757.86 429.012 757.823C411.445 757.785 397.235 743.514 397.273 725.947L397.285 720.36C397.318 705.011 408.218 692.225 422.688 689.267L435.63 689.294ZM169.213 445.861C169.254 426.752 153.797 411.227 134.688 411.186L35.3988 410.973C16.2896 410.931 0.765366 426.389 0.724244 445.498C0.683122 464.607 16.1408 480.132 35.2499 480.173L134.539 480.387C153.648 480.428 169.172 464.97 169.213 445.861ZM218.632 550.427C237.741 550.468 253.199 565.993 253.158 585.102C253.117 604.211 237.593 619.669 218.483 619.628L193.696 619.575C174.587 619.533 159.129 604.009 159.17 584.9C159.211 565.79 174.736 550.332 193.845 550.374L218.632 550.427ZM179.107 275.517C198.217 275.558 213.675 291.083 213.634 310.192C213.592 329.302 198.068 344.759 178.959 344.718L140.99 344.637C121.881 344.595 106.423 329.071 106.464 309.962C106.506 290.852 122.03 275.395 141.139 275.436L179.107 275.517Z" fill="#DEE3EA" fill-opacity="0.5"/>
</svg>
