<svg width="17" height="17" viewBox="0 0 17 17" fill="none" xmlns="http://www.w3.org/2000/svg">
    <path d="M11.2772 5.21677L6.88702 9.60495L4.92277 7.6407C4.66964 7.38757 4.25654 7.38757 4.00341 7.6407C3.75029 7.89382 3.75029 8.30692 4.00341 8.56005L6.42734 10.984C6.5549 11.1115 6.72094 11.1743 6.88699 11.1743C7.05304 11.1743 7.21909 11.1116 7.34663 10.984L12.1965 6.13612C12.4496 5.88299 12.4496 5.46989 12.1965 5.21677C11.9413 4.9616 11.5303 4.9616 11.2772 5.21677H11.2772Z" fill="#13D3BE"/>
    <path d="M8.10002 0C3.63286 0 0 3.63286 0 8.10002C0 12.5672 3.63286 16.2 8.10002 16.2C12.5672 16.2 16.2 12.5672 16.2 8.10002C16.2 3.63286 12.5672 0 8.10002 0ZM8.10002 14.9C4.35174 14.9 1.30005 11.8503 1.30005 8.10002C1.30005 4.34971 4.35174 1.30005 8.10002 1.30005C11.8483 1.30005 14.9 4.34971 14.9 8.10002C14.9 11.8503 11.8483 14.9 8.10002 14.9Z" fill="#13D3BE"/>
</svg>
