<svg width="48" height="43" viewBox="0 0 48 43" fill="none" xmlns="http://www.w3.org/2000/svg">
    <path d="M41.9899 33.0052C41.745 33.2652 41.3777 33.2652 41.1327 33.0052L39.1736 30.9253V37.4253C39.1736 37.7503 38.9287 38.0753 38.5614 38.0753C38.1941 38.0753 37.9491 37.7503 37.9491 37.4253V30.9253L35.99 33.0052C35.8677 33.1351 35.6839 33.2003 35.5615 33.2003C35.3778 33.2003 35.2554 33.1353 35.133 33.0052C34.8881 32.7451 34.8881 32.3552 35.133 32.0951L38.1331 28.9101C38.1943 28.8451 38.2555 28.7802 38.3169 28.7802C38.4392 28.7152 38.623 28.7152 38.8068 28.7802C38.8679 28.7802 38.9291 28.8451 38.9905 28.9101L41.9906 32.0951C42.2349 32.3552 42.2349 32.7454 41.99 33.0052H41.9899Z" fill="#585B6D"/>
    <path d="M11.8672 13.8299C9.72431 13.8299 7.94873 12.0098 7.94873 9.66981C7.94873 7.39481 9.66313 5.57471 11.8672 5.57471C14.0101 5.57471 15.7245 7.39481 15.7245 9.66981C15.7245 12.01 14.0101 13.8299 11.8672 13.8299ZM11.8672 6.87487C10.3977 6.87487 9.17323 8.17487 9.17323 9.66998C9.17323 11.1651 10.3977 12.53 11.8672 12.53C13.3366 12.53 14.5 11.23 14.5 9.66998C14.5 8.10992 13.3366 6.87487 11.8672 6.87487Z" fill="#585B6D"/>
    <path d="M39.1736 24.4901V2.78008C39.1736 1.74013 38.3776 0.830078 37.3369 0.830078H2.80593C1.7652 0.830078 0.969177 1.74013 0.969177 2.78008V32.0951C0.969177 33.135 1.7652 34.0451 2.80593 34.0451H30.1735C30.4797 38.66 34.1532 42.3651 38.5614 42.3651C43.2144 42.3651 47.0104 38.3352 47.0104 33.3951C46.9494 28.7152 43.5207 24.8151 39.1736 24.4901V24.4901ZM2.19368 2.78008C2.19368 2.45508 2.43862 2.13008 2.80593 2.13008H37.3369C37.7042 2.13008 37.9491 2.45508 37.9491 2.78008V21.8251L29.0102 13.5051C28.7653 13.31 28.398 13.31 28.2142 13.5051L17.4386 24.1651L12.4794 18.9651C12.2957 18.77 11.9284 18.705 11.6834 18.9001L2.19353 26.2451L2.19368 2.78008ZM2.80593 32.7451C2.43862 32.7451 2.19368 32.4201 2.19368 32.0951V27.8051L11.9897 20.2651L17.01 25.5301C17.255 25.7901 17.6223 25.7901 17.8672 25.5301L28.6428 14.8701L37.9491 23.5151V24.4901C33.7856 24.8151 30.4796 28.3251 30.1735 32.7451H2.80593ZM38.5614 41.0651C34.5817 41.0651 31.398 37.62 31.398 33.3951C31.398 29.1702 34.6431 25.7251 38.5614 25.7251C42.541 25.7251 45.7859 29.1702 45.7859 33.3951C45.7247 37.6203 42.5409 41.0651 38.5614 41.0651V41.0651Z" fill="#585B6D"/>
</svg>
